/* XPM */
static char *_fae1616219044e0dd3df7634912ce6ebxys16PV1Tn2AIuk[] = {
/* columns rows colors chars-per-pixel */
"94 94 8 1 ",
"  c None",
". c #A0022B",
"X c #CE0509",
"o c #FF5E00",
"O c #F89200",
"+ c #FFCB51",
"@ c #FFCB52",
"# c #FFF8BE",
/* pixels */
"                                                                                              ",
"                                                                                              ",
"                                                                                              ",
"                                                                                              ",
"                                                                                              ",
"                                                                                              ",
"                                                                                              ",
"                                                                                              ",
"                                                                                              ",
"                                                                                              ",
"                                                               X                              ",
"                                                               XX                             ",
"                                                               XXX                            ",
"                                                               XXXX                           ",
"                                                   XXXXX       XXXXX                          ",
"                                             XXXXXXXXXXXX      XXXXX                          ",
"                                            XXXXXXXXXXXXXXX  XXXXXXXX                         ",
"                                        XXXXXXXXXXXXXXXXXXXXXXXXXXXXXX                        ",
"                                      XXXXXXXXXXXXXXXXXXXXXXXXXXXXXXXX                        ",
"                                     XXXXXXXXXXXXXXXXXXXXXXXXXXXXXXXXXX                       ",
"                                     XXXXXXXXXXXXXXXXXXXXXXXXXXXXXXXXXX                       ",
"                                    XXXXXXXXXXXXXXXXXXXXXXXXXXXXXXXXXXX                       ",
"                                    XXXXXXXXXXXXXXXXXXXXXXXXXXXXXXXXXXX                       ",
"                                    XXXXXXXXXXXXXXXXXXXXXXXXXXXXXXXXXXX                       ",
"                                    XXXXXXXXXXXXXXXXXXXXXXXXXXXXXXXXXXX                       ",
"                                   XXXXXXXXXXXXXXXXXXXXXXXXXXXXXXXXXXXX                       ",
"                                XXXXXXXXXXXXXXXXXXXXXXXXXXXXXXXXXXXXXX                        ",
"                                XXXXXXXXXXXXXXXXXXXXXXXXXXXXXXXXXXXXXX                        ",
"                              XXXXXXXXXXXXX+++++++++XXXXXXXXXXXXXXXXX                         ",
"                            XXXXXXXXXXXX++++++++++++++XXXXXXXXXXXXXXX                         ",
"                        XXXXXXXXXXXXXX+++++++++++++++++XXXXXXXXXXXXXX                         ",
"                       XXXXXXXXXXXX++++++++++++++++++++++XXXXXXXXXXXX                         ",
"                      XXXXXXXXXXX++++#++++++++++++++++++++XXXXXXXXXXX                         ",
"                     XXXXXXXXXXX+#######+++++++++++++++++++XXXXXXXXXXX                        ",
"                    XXXXXXXXXX++#########+++++++++++++++++++XXXXXXXXXX                        ",
"                    XXXXXXXXX++++++++#####++++++++OOOOOOOO++XXXXXXXXXX                        ",
"                    XXXXXXXX++######++####++++++OOOOOOOOOOO++XXXXXXXXXX                       ",
"                    XXXXXXX++########+####++++OOOOOOOOOOOOOOOXXXXXXXXXXX                      ",
"                    XXXXXX++##########+##+++OOOOOOOOOOOOOOOOOOXXXXXXXXXXX                     ",
"                    XXXXXX#############OO++oOOOOOOOOOOOOOOOOOOXXXXXXXXXXX                     ",
"                    XXXXX+##########+++++OOoOOOOOOOoOOOOOOOOOOOXXXXXXXXXXX                    ",
"                    XXXX+#########+++++++++oOOOOOOooOOOOOOOOOOOXXXXXXXXXXX                    ",
"                 XXXXXXX+########++++++++++ooOoooooOOOOOOOOOOOOXXXXXXXXXXX                    ",
"                XXXXXXXX+########++####++++oooooooOOooOOOOOOOOOXXXXXXXXXXX                    ",
"               XXXXXXXX++############++++++XoooooOooo++OOOOOOOOXXXXXXXXXXX                    ",
"             XXXXXXXXXX+###########+++++++++ooooOooo+OOOOOOOOOXXXXXXXXXXXX                    ",
"            XXXXXXXXXXX+##########+.....+++++Xooooo+OOOOOOOOOOXXXXXXXXXXX  XXX                ",
"            XXXXXXXXXXX++######++++......++++Xooooo+OOOOOOOOOOXXXXXXXXXX   XX                 ",
"           XXXXXXXXXXXX+++###++++.........+++XXoooo+OOOOOOOOOXXXXXXXXX    X                   ",
"           XXXXXXXXXXXX++++++++++..........++#XooooooOOOOOOXXXXXXXXXXX   X                    ",
"           XXXXXXXXXXXX+++++++++XX.........++#XXooooooooooOXXXXXXXXXX   XX                    ",
"           XXXXXXXXXXXX+++++++++XXX........+###XXoooooooooOXXXXXXXXXX  XXX                    ",
"           XXXXXXXXXXXX+..++++++oXX.......++####XXoooooXX+OXXXXXXXXXXXXXXXX                   ",
"           XX  XXXXXXXX....+++++oXXX......+####+#XXooXX++OOXXXXXXXXXXXXXXXX                   ",
"          XX    XXXXXXX...XX++++oooXXXXXX++##++++###++++OOXXXXXXXXXXXXXXXXX                   ",
"          XX    XXXXXXXXX.XXX++++ooooXXX+++++++++++++++OOXXXXXXXXXXXXXXXXX                    ",
"          X     XXXXXXXXXX.Xo+#++oooooo#++++++++++++++OOXXXXXXXXXXXXXXXXXX                    ",
"          X      XXXXXXXXXXXo+##+++oo##+++++++++++OOOOOXXXXXXXXXXXXXXXXXXX                    ",
"                  XXXXXXXXX.o+###++##++++++++OOOOOOOOOXXXXXXXXXXXXXXXXXXXX                    ",
"                  XXXXXXXXX.#+###+++++++++oooOOOOOOXXoXXXXXXXXXXXXXXXXXXXX                    ",
"                   XXXXXXXXX#+OOO++++++++oooOOOOXXXXoooXXXXXXXXXXXXXXXXXXX                    ",
"                   XXXXXXXXX+OoXOO+++++++oooOXXXXXooOOoXXXXXXXXXXXXXXXXXXX                    ",
"                   XXXXXXXXXXOoXXOO+++++++ooOXXXXXoOOOOoXXXXXXXXXXXXXXXXXX                    ",
"                    XXXXXXXXXOXXXXOO++++O+oOXXXXXXOOOOOoXXXXXXXXXXXXXXXXXX                    ",
"                     XXXXXXXXOOX...O+++O+ooOXXXXXXXOOOOoXXXXXXXXXXXXXXXXX                     ",
"                     XXXXXXXXXOX...O+++Oo..+OXXXXXXOOOOooXXXXXXXXXXXXXXX                      ",
"                       XXXXXXXO+OO+O+O+O.+O+OXXXXXXXOOOoooXXXXXXXXXXXX                        ",
"                       XXXXXXXO++O+o+Oo.O#O..XXXXXXXOOOoooXXXXXXXXXXX                         ",
"                         XXXXXXO+o+o+o.#O+...XXXXXXXOOOooooXXXXXXXXXX                         ",
"                          XXXXXX...X..X+O...XXXXXXXXOOOooooXXXXXXXXXX                         ",
"                           XXXXXOXOO.+XOX.XXXXXXXXXooOoooooXXXXXXXXX                          ",
"                             XXX+O+OX+OXX.XoXXXXX++OXoooooXXXXXXXXX                           ",
"                              XXXXXXXXXXX.XooXXXX++OXooooXXXXXXXXX                            ",
"                              XXXXXXXXXX.XXooXXX#XXXXooooXXXXXXXX                             ",
"                              XXXXXXXXXX.XXoXXX++XXoooooXXXXXXXX                              ",
"                              XXXXXXXXXXXXXXX+#oXXoooooXXXXXXXXX                              ",
"                              XXXXXXXXXXXXXXX##oXoooooXXXXXXXXX                               ",
"                              XXXXXXXXXXXX#+ooXXXooooXXXXXXXXX                                ",
"                            XXXXXXXXXXXX++o+XXXOoooooXXXXXXXXX                                ",
"                            XXXXXXXXXXXX++oXoOOOooooXXXXXXXXXX      XX                        ",
"                             XXXXXXXXXXXXXXOOOOooooXXXXXXXXXXXX  XXXXX                        ",
"                             XXXXXXXXXXXoOOOOOOoooXXXXXXXXXXXXXXXXXXX                         ",
"                               XXXXXXXXXXooooooooXXXXXXXXXXXXXXXXXXXX                         ",
"                                XXXXXXXXXXXXXXXXXXXXXXXXXXXXXXXXXXX                           ",
"                                 XXXXXXXXXXXXXXXXXXXXXXXXXXXXXXXXX                            ",
"                                         XXXXXXXXXXXXXXXXXXXXXXX                              ",
"                                           XXXXXXXXXXXXXXXXXX                                 ",
"                                             XXXXXXXXX                                        ",
"                                                                                              ",
"                                                                                              ",
"                                                                                              ",
"                                                                                              ",
"                                                                                              ",
"                                                                                              "
};
