/* XPM */
static char *_5f309423f124d4cdcce6c02a31cba2aIlvdlKVibd0mODKf[] = {
/* columns rows colors chars-per-pixel */
"96 96 8 1 ",
"  c None",
". c #130A1B",
"X c #23182D",
"o c #621619",
"O c #00627E",
"+ c #983E1D",
"@ c #E1924D",
"# c #00B0DA",
/* pixels */
"                                                                                                ",
"                                                                                                ",
"                                                                                                ",
"                                                                                                ",
"                                                                                                ",
"                                                                                                ",
"                                                                                                ",
"                                                                                                ",
"                                                                                                ",
"                                                                                                ",
"                                                                                                ",
"                                                                                                ",
"                                                                                                ",
"                                                                                                ",
"                                                                                                ",
"                                                                                                ",
"                                                                                                ",
"                                                                                                ",
"                                                                                                ",
"                                                                                                ",
"                                                                                                ",
"                                                                                                ",
"                                                                                                ",
"                         O                                                                      ",
"                      OOOO    OOOOO                                                             ",
"                    OOOOO   OOOOOOO                                                             ",
"                   OOOOO    OOOOOOOO                                                            ",
"                              OOOOOOOOO                                                         ",
"                     OO#####O      OOOO                         OOOO                            ",
"                   OO####OOOOOO                                   OOO                           ",
"                  OO####OOOOOOOO                                   OOO                          ",
"                OOO###OOOOOOO##OOOO                                 OOO                         ",
"                OO###OOOOOOOOO##OOOO                                                            ",
"              ..OO###OOOOOOOOO###OOOOO        ..  .                                             ",
"             .......OOOOOOOOOO###OOO      ...                                                   ",
"             ..OOOO.OOOOOOOOOOO###O    ....                                                     ",
"           ......OOOOO......OOO####.....                                                        ",
"          .oooo...OOOO........OO##OO.... OOO                                                    ",
"         o+++oo....OO####OO....OOOOO...  OOOOO                                                  ",
"        +++ooo.....O######OO.....OOO..    OOOOOO             ..                                 ",
"       +++oo........#######OOO....OOOOO                       ....                              ",
"      +@+oo.#.ooo...#######OOOO....OOOOOO                       ...                             ",
"     +@++o...+oo...OOOO#####OOOO.....OOOOOO                                                     ",
"     @@+ooo.+o.....OOOOOOO##OOOOO.......OOOOOO                                                  ",
"    @@++ooo+oo.....OOOOOOOO#OOOOO ......                                                        ",
"   @+++ooo+oo.......OOOOOOOOOOOOOOOOOOO       O                                                 ",
"   ...+ooooo...........OOOOOOO#OOOOOOOO#O   OO .                                                ",
"  ...+oooo...oo.........OOOOOO####OO###OOOOO..                                                  ",
" ++++oo...o++o...........OOOOOO#######OOOO...                                                   ",
" +ooo...o++oo..............OOOOOO###O   ....                                                    ",
"  oo..o++oo...   ..XXXX.......OOO...........                                                    ",
"   ..++oo.         ..XXX..................                                                      ",
"    oo..            ...XX...........OOOOOOOOOOO                        OO####                   ",
"                     ...XXX............OOOO                 XXX     O#######OOO                O",
"                     .....XXX...........                XXXXXXXXXX O######OOOOOO##           OOO",
"                     .......XXXXX....X......          XXXXXXXXXXXXXO###OOOOOOOOOO####OOOOOOOOOOO",
"                     ...............XXXXXX..   ........XXXXXXXXXXXXO##OOOO####OOOO#####OOOOOOOOO",
"                    .....XXXXXXX...XXXXXXXX....XXXXXXXXXXXXXXXXXXXX.#OOO####OOOOOOO#############",
"                    ....XXXXXXXXXXXXXXXXXXXXXXXXXXXXXXXXXXXXXXXXXXX...      OOOOOOOO############",
"                   ....XXXXXXXXXXXXXXXXXXXXXXXXXXXXXXXXXXXXXXXXXXXX...       OOOOOOOO###########",
"                   ...XXXXXXXXXXXXXXXXXXXXXXXXXXXXXXXXXXXXXXXXXXXXXX..        OOOOOOOO##########",
"                   ...XXXXXXXXXXXXXXXXXXXXXXXXXXXXXXXXXXXXXXXXXXXXXX...         OOOOOOO#########",
"                   ...XXXXXXXXXXXXXXXXXXXXXXXXXXXXXXXXXXXXXXXXXXXXXX...          OOOOOOOO#####OO",
"                   ...XXXXXXXXXXXXXXXXXXXXXXXXXXXXXXXX.XXXXXXXXXXXXX....           OOOOOOO######",
"                   ...XXXXXXXXXXXXXXXXXXXXXXXXXXXXXXX..XXXXXXXXXXXXX....            OOOOOOOOO###",
"                   ...XXXXXXXXXXXXXXXXXXXXXXXXXXXXXX..XXXXXXXXXXXXXX....               OOOOOO   ",
"                    ..XXXXX..XXXXXXXXXXXXXXXXXXXXXX...XXXXXXXXXXXXXX....                        ",
"                   ....XXXXX..XXXXXX.XXXXXXXXXXX......XXXXXXXXXXXXXX...                         ",
"                   .....XXXXX.XXXXXX.XXXXXXX..........XXXXXXXXXXXXX....                         ",
"                ........XXXXXX.XXXX..XXXXXX............XXXXXXXXXXXX....                         ",
"            ............XXXXXXX.....XXXX................XXXXXXXXXXXXX...                        ",
"           ..............XXXXXX.........................XXXXXXX...XXXX..                        ",
"           .............XXXXXX................. ........XXXXXXX...XXXX..                        ",
"           .........  .XXXXXXX...        ...      .......X..XX...XXXXXX.                        ",
"           ....      ..X..XXX...                      ...........XX.XXXX                        ",
"           ....     ..........                        ...........XXXXXXX                        ",
"           ....     .XXX....                          ....... ....X.XXXX       #                ",
"           ....    XXXXX..                            .......   ........       #                ",
"           ....   XXXXXX                              .....     XXX.....                        ",
"           ....   XXXXXX                              .....  XXXX.......        #               ",
"           ....   XXXXX                               ....  .XX.......          #               ",
"            ... O XXXX.                               .............             #               ",
"            ....O  .XX.                             .....#......               #                ",
"            ....OOO.....     #                     .....######.   #                             ",
"            ...OOOO .....  ###                 O  ......###########                             ",
"             OOOOO   .....####                OO .......##########           ###                ",
"              OOOO    XX..####                O .....  ########              ##                 ",
"               OO     XX...###              OOO..O.       ###                ##                 ",
"                       XX..###              OOOOO.         ####             ##                  ",
"                   OO    .#####            OOOOOOO                          #                   ",
"                    OOO    ####            OOOOOO                 ##                            ",
"                              ###          OOOOOO                #########                      ",
"                           O       ###                               ####                       ",
"                          OOO    O ###  ##                                                      ",
"                                                                                                ",
"                                                                                                "
};
